name Walk5.mot
datacolumns 19
datarows 30
range 2.27200000 2.30100000
endheader

                time	   L_ground_force_vx	   L_ground_force_vy	   L_ground_force_vz	   L_ground_force_px	   L_ground_force_py	   L_ground_force_pz	   R_ground_force_vx	   R_ground_force_vy	   R_ground_force_vz	   R_ground_force_px	   R_ground_force_py	   R_ground_force_pz	   L_ground_torque_x	   L_ground_torque_y	   L_ground_torque_z	   R_ground_torque_x	   R_ground_torque_y	   R_ground_torque_z	
          2.27200000	         -0.00000000	          0.00000000	         -0.00000000	         -0.00000000	          0.00000000	         -0.00000000	         16.92858168	         64.99477994	         16.43352307	          0.50689490	          0.00000000	          0.10778797	          0.00000000	          0.00000000	          0.00000000	          0.00000000	         -3.74217183	          0.00000000	
          2.27300000	         -0.00000000	          0.00000000	         -0.00000000	         -0.00000000	          0.00000000	         -0.00000000	         15.86488998	         60.62774626	         15.86044478	          0.49717622	          0.00000000	          0.10576271	          0.00000000	         -0.00000000	          0.00000000	          0.00000000	         -3.51589157	          0.00000000	
          2.27400000	         -0.00000000	          0.00000000	         -0.00000000	         -0.00000000	          0.00000000	         -0.00000000	         14.83332713	         56.43112539	         15.28371858	          0.48704950	          0.00000000	          0.10365090	          0.00000000	         -0.00000000	          0.00000000	          0.00000000	         -3.29629228	          0.00000000	
          2.27500000	         -0.00000000	          0.00000000	         -0.00000000	         -0.00000000	          0.00000000	         -0.00000000	         13.83455006	         52.40241374	         14.70477054	          0.47652065	          0.00000000	          0.10145347	          0.00000000	         -0.00000000	          0.00000000	          0.00000000	         -3.08349287	          0.00000000	
          2.27600000	         -0.00000000	          0.00000000	         -0.00000000	         -0.00000000	          0.00000000	         -0.00000000	         12.86913328	         48.53898843	         14.12499867	          0.46559781	          0.00000000	          0.09917186	          0.00000000	         -0.00000000	          0.00000000	          0.00000000	         -2.87759765	          0.00000000	
          2.27700000	         -0.00000000	         -0.00000000	         -0.00000000	         -0.00000000	          0.00000000	         -0.00000000	         11.93756533	         44.83812070	         13.54576846	          0.45429163	          0.00000000	          0.09680804	          0.00000000	         -0.00000000	          0.00000000	          0.00000000	         -2.67869548	          0.00000000	
          2.27800000	         -0.00000000	         -0.00000000	         -0.00000000	         -0.00000000	          0.00000000	         -0.00000000	         11.04024576	         41.29698809	         12.96840911	          0.44261539	          0.00000000	          0.09436455	          0.00000000	         -0.00000000	          0.00000000	          0.00000000	         -2.48685867	          0.00000000	
          2.27900000	         -0.00000000	         -0.00000000	         -0.00000000	         -0.00000000	          0.00000000	         -0.00000000	         10.17748264	         37.91268667	         12.39421052	          0.43058526	          0.00000000	          0.09184452	          0.00000000	         -0.00000000	          0.00000000	          0.00000000	         -2.30214210	          0.00000000	
          2.28000000	         -0.00000000	         -0.00000000	         -0.00000000	         -0.00000000	          0.00000000	         -0.00000000	          9.34949008	         34.68224481	         11.82442122	          0.41822052	          0.00000000	          0.08925173	          0.00000000	         -0.00000000	          0.00000000	          0.00000000	         -2.12458245	          0.00000000	
          2.28100000	         -0.00000000	         -0.00000000	         -0.00000000	         -0.00000000	          0.00000000	         -0.00000000	          8.55638557	         31.60263942	         11.26024703	          0.40554374	          0.00000000	          0.08659065	          0.00000000	         -0.00000000	          0.00000000	          0.00000000	         -1.95419773	          0.00000000	
          2.28200000	         -0.00000000	         -0.00000000	         -0.00000000	         -0.00000000	          0.00000000	         -0.00000000	          7.79818701	         28.67081439	         10.70285037	          0.39258104	          0.00000000	          0.08386649	          0.00000000	         -0.00000000	          0.00000000	          0.00000000	         -1.79098718	          0.00000000	
          2.28300000	         -0.00000000	         -0.00000000	         -0.00000000	         -0.00000000	          0.00000000	         -0.00000000	          7.07480958	         25.88369987	         10.15334980	          0.37936226	          0.00000000	          0.08108526	          0.00000000	         -0.00000000	          0.00000000	          0.00000000	         -1.63493146	          0.00000000	
          2.28400000	         -0.00000000	         -0.00000000	          0.00000000	         -0.00000000	          0.00000000	         -0.00000000	          6.38606281	         23.23823002	          9.61281909	          0.36592119	          0.00000000	          0.07825384	          0.00000000	         -0.00000000	          0.00000000	          0.00000000	         -1.48599307	          0.00000000	
          2.28500000	         -0.00000000	         -0.00000000	          0.00000000	         -0.00000000	          0.00000000	         -0.00000000	          5.73164878	         20.73135573	          9.08228536	          0.35229575	          0.00000000	          0.07538007	          0.00000000	         -0.00000000	          0.00000000	          0.00000000	         -1.34411697	          0.00000000	
          2.28600000	         -0.00000000	         -0.00000000	          0.00000000	         -0.00000000	          0.00000000	         -0.00000000	          5.11116226	         18.36004872	          8.56272530	          0.33852823	          0.00000000	          0.07247277	          0.00000000	         -0.00000000	          0.00000000	          0.00000000	         -1.20923103	          0.00000000	
          2.28700000	         -0.00000000	         -0.00000000	          0.00000000	         -0.00000000	          0.00000000	         -0.00000000	          4.52409393	         16.12129303	          8.05505897	          0.32466549	          0.00000000	          0.06954188	          0.00000000	         -0.00000000	          0.00000000	          0.00000000	         -1.08124652	          0.00000000	
          2.28800000	         -0.00000000	         -0.00000000	          0.00000000	         -0.00000000	          0.00000000	         -0.00000000	          3.96983793	         14.01205393	          7.56013918	          0.31075858	          0.00000000	          0.06659831	          0.00000000	         -0.00000000	          0.00000000	          0.00000000	         -0.96005856	          0.00000000	
          2.28900000	         -0.00000000	         -0.00000000	          0.00000000	         -0.00000000	          0.00000000	         -0.00000000	          3.44770498	         12.02921478	          7.07873438	          0.29686038	          0.00000000	          0.06365348	          0.00000000	         -0.00000000	          0.00000000	          0.00000000	         -0.84554674	          0.00000000	
          2.29000000	         -0.00000000	         -0.00000000	          0.00000000	         -0.00000000	          0.00000000	         -0.00000000	          2.95693786	         10.16950927	          6.61151173	          0.28302210	          0.00000000	          0.06071851	          0.00000000	         -0.00000000	          0.00000000	          0.00000000	         -0.73757607	          0.00000000	
          2.29100000	         -0.00000000	         -0.00000000	          0.00000000	         -0.00000000	          0.00000000	         -0.00000000	          2.49672423	          8.42949546	          6.15903093	          0.26929093	          0.00000000	          0.05780364	          0.00000000	         -0.00000000	          0.00000000	          0.00000000	         -0.63599839	          0.00000000	
          2.29200000	         -0.00000000	         -0.00000000	          0.00000000	         -0.00000000	          0.00000000	         -0.00000000	          2.06620534	          6.80557177	          5.72174839	          0.25570965	          0.00000000	          0.05491817	          0.00000000	         -0.00000000	          0.00000000	          0.00000000	         -0.54065397	          0.00000000	
          2.29300000	         -0.00000000	         -0.00000000	          0.00000000	         -0.00000000	          0.00000000	         -0.00000000	          1.66448325	          5.29400417	          5.30002427	          0.24231684	          0.00000000	          0.05207052	          0.00000000	         -0.00000000	          0.00000000	          0.00000000	         -0.45137313	          0.00000000	
          2.29400000	         -0.00000000	         -0.00000000	          0.00000000	         -0.00000000	          0.00000000	         -0.00000000	          1.29062755	          3.89095152	          4.89412934	          0.22914709	          0.00000000	          0.04926823	          0.00000000	         -0.00000000	          0.00000000	          0.00000000	         -0.36797768	          0.00000000	
          2.29500000	         -0.00000000	         -0.00000000	          0.00000000	         -0.00000000	          0.00000000	         -0.00000000	          0.94368164	          2.59248926	          4.50425151	          0.21623119	          0.00000000	          0.04651802	          0.00000000	         -0.00000000	          0.00000000	          0.00000000	         -0.29028236	          0.00000000	
          2.29600000	         -0.00000000	         -0.00000000	          0.00000000	         -0.00000000	          0.00000000	         -0.00000000	          0.62266856	          1.39463125	          4.13050219	          0.20359637	          0.00000000	          0.04382587	          0.00000000	         -0.00000000	          0.00000000	          0.00000000	         -0.21809611	          0.00000000	
          2.29700000	         -0.00000000	         -0.00000000	          0.00000000	         -0.00000000	          0.00000000	         -0.00000000	          0.32659643	          0.29335014	          3.77292240	          0.19126647	          0.00000000	          0.04119701	          0.00000000	         -0.00000000	          0.00000000	          0.00000000	         -0.15122330	          0.00000000	
          2.29800000	         -0.00000000	         -0.00000000	          0.00000000	          0.00000000	          0.00000000	         -0.00000000	          0.05446345	         -0.71540398	          3.43148853	          0.17926216	          0.00000000	          0.03863599	          0.00000000	         -0.00000000	          0.00000000	          0.00000000	         -0.08946486	          0.00000000	
          2.29900000	         -0.00000000	         -0.00000000	          0.00000000	          0.00000000	          0.00000000	         -0.00000000	         -0.19473745	         -1.63568627	          3.10611799	          0.16760111	          0.00000000	          0.03614672	          0.00000000	         -0.00000000	          0.00000000	          0.00000000	         -0.03261931	          0.00000000	
          2.30000000	         -0.00000000	         -0.00000000	          0.00000000	          0.00000000	          0.00000000	         -0.00000000	         -0.42201439	         -2.47154145	          2.79667451	          0.15629821	          0.00000000	          0.03373251	          0.00000000	         -0.00000000	          0.00000000	          0.00000000	          0.01951625	          0.00000000	
          2.30100000	         -0.00000000	         -0.00000000	          0.00000000	          0.00000000	          0.00000000	         -0.00000000	         -0.62837260	         -3.22698936	          2.50297323	          0.14536571	          0.00000000	          0.03139610	          0.00000000	         -0.00000000	          0.00000000	          0.00000000	          0.06714529	          0.00000000	
